<?xml version="1.0" encoding="UTF-8"?><svg id="Layer_2" xmlns="http://www.w3.org/2000/svg" viewBox="0 0 675 411.69"><defs><style>.cls-1{fill:#f5f7fa;}.cls-1,.cls-2,.cls-3,.cls-4,.cls-5{stroke-width:0px;}.cls-2{fill:#9aa5b1;}.cls-3,.cls-6{fill:#3e4c59;}.cls-7{fill:none;}.cls-7,.cls-8{stroke:#9aa5b1;stroke-miterlimit:10;stroke-width:2px;}.cls-8{fill:#fff;}.cls-4{fill:#e4e7eb;}.cls-6{font-family:MontserratRoman-SemiBold, Montserrat;font-size:12px;font-variation-settings:'wght' 600;font-weight:600;}.cls-5{fill:#cbd2d9;}</style></defs><g id="Layer_1-2"><rect class="cls-1" x="1" y="1" width="673" height="377.69"/><path class="cls-4" d="m673,2v375.69H2V2h671m2-2H0v379.69h675V0h0Z"/><rect class="cls-2" x="149.71" y="35.72" width="66.73" height="5.36" rx="2" ry="2"/><rect class="cls-2" x="241.47" y="35.72" width="66.73" height="5.36" rx="2" ry="2"/><rect class="cls-2" x="333.22" y="35.72" width="66.73" height="5.36" rx="2" ry="2"/><rect class="cls-2" x="424.98" y="35.72" width="66.73" height="5.36" rx="2" ry="2"/><rect class="cls-1" x="1" y="378.69" width="673" height="32"/><path class="cls-4" d="m673,379.69v30H2v-30h671m2-2H0v34h675v-34h0Z"/><text class="cls-6" transform="translate(172.56 397.84)"><tspan x="0" y="0">Dashboard Route - accessible only by logged in users</tspan></text><rect class="cls-8" x="348.91" y="104.64" width="189.9" height="215.91"/><rect class="cls-8" x="136.53" y="223.33" width="189.9" height="97.22" rx="1.29" ry="1.29"/><polyline class="cls-7" points="349.62 225.64 376.31 212.6 385.49 233.23 399.87 190.91 416.23 236.02 443.86 162.96 461.3 190.11 491.27 163.99 506.86 179.33 538.81 151.22"/><polyline class="cls-7" points="348.91 263.17 397.52 263.17 453.76 253.54 494.48 231.63 538.81 122.64"/><rect class="cls-8" x="136.19" y="164.27" width="189.9" height="46.58" rx="1.29" ry="1.29"/><circle class="cls-5" cx="160.88" cy="187.55" r="14.97"/><rect class="cls-2" x="182.67" y="191.37" width="107.23" height="3.38" rx="1.69" ry="1.69"/><rect class="cls-2" x="182.67" y="180.36" width="59.94" height="4.82" rx="2" ry="2"/><rect class="cls-8" x="136.19" y="104.64" width="189.9" height="46.58" rx="1.29" ry="1.29"/><circle class="cls-5" cx="160.88" cy="127.93" r="14.97"/><rect class="cls-2" x="182.67" y="131.75" width="107.23" height="3.38" rx="1.69" ry="1.69"/><rect class="cls-2" x="182.67" y="120.74" width="59.94" height="4.82" rx="2" ry="2"/><circle class="cls-2" cx="180.82" cy="271.94" r="32.85"/><circle class="cls-3" cx="270.63" cy="271.94" r="32.85"/><path class="cls-5" d="m203.92,271.87l-23.09-.07,11.61-19.96,4.84-8.32c-4.84-2.81-10.46-4.42-16.45-4.42-18.14,0-32.85,14.71-32.85,32.85s14.71,32.85,32.85,32.85,32.85-14.71,32.85-32.85c0-.01,0-.03,0-.04l-9.76-.03Z"/><path class="cls-5" d="m270.63,272.54l24.56-22.41c-6.02-6.77-14.79-11.05-24.56-11.05-18.14,0-32.85,14.71-32.85,32.85s14.71,32.85,32.85,32.85c14.47,0,26.75-9.36,31.13-22.36l-31.13-9.89Z"/><circle class="cls-2" cx="551.75" cy="38.4" r="21.15"/><path class="cls-5" d="m561.52,50.09h-19.54c-1.47,0-2.66-1.19-2.66-2.66v-.34c0-4.59,3.72-8.32,8.32-8.32h8.22c4.59,0,8.32,3.72,8.32,8.32v.34c0,1.47-1.19,2.66-2.66,2.66Z"/><circle class="cls-5" cx="551.75" cy="30.17" r="6.38"/></g></svg>