<?xml version="1.0" encoding="UTF-8"?><svg id="Layer_2" xmlns="http://www.w3.org/2000/svg" xmlns:xlink="http://www.w3.org/1999/xlink" viewBox="0 0 675 411.69"><defs><style>.cls-1{fill:#f5f7fa;}.cls-1,.cls-2,.cls-3,.cls-4,.cls-5{stroke-width:0px;}.cls-6{fill:#616e7c;}.cls-6,.cls-7,.cls-8{font-family:MontserratRoman-SemiBold, Montserrat;font-size:12px;font-variation-settings:'wght' 600;font-weight:600;}.cls-2{fill:#9aa5b1;}.cls-3,.cls-8{fill:#3e4c59;}.cls-4,.cls-9{fill:none;}.cls-7,.cls-5{fill:#e4e7eb;}.cls-10{clip-path:url(#clippath);}.cls-9{stroke:#cbd2d9;stroke-miterlimit:10;}</style><clipPath id="clippath"><rect class="cls-4" x="148.73" y="184.86" width="46.36" height="49.26" rx="6.44" ry="6.44"/></clipPath></defs><g id="Layer_1-2"><rect class="cls-1" x="1" y="1" width="673" height="377.69"/><path class="cls-5" d="m673,2v375.69H2V2h671m2-2H0v379.69h675V0h0Z"/><rect class="cls-2" x="149.71" y="35.72" width="66.73" height="5.36" rx="2" ry="2"/><rect class="cls-2" x="241.47" y="35.72" width="66.73" height="5.36" rx="2" ry="2"/><rect class="cls-2" x="333.22" y="35.72" width="66.73" height="5.36" rx="2" ry="2"/><rect class="cls-2" x="424.98" y="35.72" width="66.73" height="5.36" rx="2" ry="2"/><rect class="cls-9" x="544.35" y="26.57" width="86" height="23.67" rx="4.06" ry="4.06"/><text class="cls-6" transform="translate(569.87 41.95)"><tspan x="0" y="0">Login</tspan></text><rect class="cls-5" x="71.65" y="109.22" width="200.53" height="200.53" rx="11.5" ry="11.5"/><rect class="cls-2" x="141.77" y="177.91" width="60.28" height="63.15" rx="13.41" ry="13.41"/><g class="cls-10"><path class="cls-5" d="m181.99,212.43c.89-1.55,3.13-1.55,4.02,0l6.03,10.44,8.04,13.92h-32.16l8.04-13.92,6.03-10.44Z"/><path class="cls-5" d="m165.35,205.04c.77-1.13,2.44-1.13,3.21,0l10,14.7,11.61,17.06h-46.42l11.61-17.06,10-14.7Z"/><circle class="cls-5" cx="181.38" cy="194.38" r="6.63"/></g><rect class="cls-3" x="372.77" y="246.43" width="181.67" height="31.05" rx="4.06" ry="4.06"/><text class="cls-7" transform="translate(439.31 265.5)"><tspan x="0" y="0">Sign Up</tspan></text><rect class="cls-3" x="314.35" y="141.49" width="298.5" height="8" rx="4" ry="4"/><rect class="cls-3" x="393.31" y="162.82" width="140.58" height="8" rx="4" ry="4"/><rect class="cls-2" x="338.16" y="194.17" width="250.88" height="6" rx="2.5" ry="2.5"/><rect class="cls-2" x="322.12" y="211.5" width="282.96" height="6" rx="2.5" ry="2.5"/><rect class="cls-1" x="1" y="378.69" width="673" height="32"/><path class="cls-5" d="m673,379.69v30H2v-30h671m2-2H0v34h675v-34h0Z"/><text class="cls-8" transform="translate(221.49 397.84)"><tspan x="0" y="0">Home Route - accessible by everyone</tspan></text></g></svg>