<?xml version="1.0" encoding="UTF-8"?><svg id="Layer_2" xmlns="http://www.w3.org/2000/svg" viewBox="0 0 675 411.69"><defs><style>.cls-1{fill:#f5f7fa;}.cls-1,.cls-2,.cls-3,.cls-4{stroke-width:0px;}.cls-5{fill:#616e7c;}.cls-5,.cls-6,.cls-7{font-family:MontserratRoman-SemiBold, Montserrat;font-variation-settings:'wght' 600;font-weight:600;}.cls-5,.cls-7{font-size:12px;}.cls-2{fill:#9aa5b1;}.cls-3,.cls-7{fill:#3e4c59;}.cls-8{fill:#fff;stroke:#9aa5b1;stroke-width:2px;}.cls-8,.cls-9{stroke-miterlimit:10;}.cls-9{fill:none;stroke:#cbd2d9;}.cls-6{font-size:7.52px;}.cls-6,.cls-4{fill:#e4e7eb;}</style></defs><g id="Layer_1-2"><rect class="cls-1" x="1" y="1" width="673" height="377.69"/><path class="cls-4" d="m673,2v375.69H2V2h671m2-2H0v379.69h675V0h0Z"/><rect class="cls-2" x="149.71" y="35.72" width="66.73" height="5.36" rx="2" ry="2"/><rect class="cls-2" x="241.47" y="35.72" width="66.73" height="5.36" rx="2" ry="2"/><rect class="cls-2" x="333.22" y="35.72" width="66.73" height="5.36" rx="2" ry="2"/><rect class="cls-2" x="424.98" y="35.72" width="66.73" height="5.36" rx="2" ry="2"/><rect class="cls-9" x="544.35" y="26.57" width="86" height="23.67" rx="4.06" ry="4.06"/><text class="cls-5" transform="translate(569.87 41.95)"><tspan x="0" y="0">Login</tspan></text><rect class="cls-1" x="1" y="378.69" width="673" height="32"/><path class="cls-4" d="m673,379.69v30H2v-30h671m2-2H0v34h675v-34h0Z"/><text class="cls-7" transform="translate(202.19 397.84)"><tspan x="0" y="0">Registration Route - accessible by everyone</tspan></text><rect class="cls-8" x="231.8" y="91.1" width="211.41" height="237.83" rx="13.05" ry="13.05"/><rect class="cls-2" x="258.93" y="208.14" width="157.15" height="3.76" rx="1.88" ry="1.88"/><rect class="cls-3" x="252.8" y="270.17" width="169.4" height="19.45" rx="4.06" ry="4.06"/><text class="cls-6" transform="translate(323.36 282.11)"><tspan x="0" y="0">Submit</tspan></text><rect class="cls-2" x="252.8" y="303.66" width="81.6" height="3.76" rx="1.88" ry="1.88"/><rect class="cls-2" x="252.8" y="124.19" width="140.42" height="3.76" rx="1.88" ry="1.88"/><rect class="cls-3" x="252.8" y="112.62" width="88.06" height="5.01" rx="2.51" ry="2.51"/><rect class="cls-4" x="252.8" y="156.61" width="169.16" height="22.08" rx="4.05" ry="4.05"/><rect class="cls-2" x="252.8" y="147.87" width="57.08" height="3.76" rx="1.88" ry="1.88"/><rect class="cls-4" x="252.8" y="204.03" width="169.16" height="22.08" rx="4.05" ry="4.05"/><rect class="cls-2" x="252.8" y="195.29" width="57.08" height="3.76" rx="1.88" ry="1.88"/><rect class="cls-2" x="276.66" y="244.16" width="57.08" height="3.76" rx="1.88" ry="1.88"/><rect class="cls-2" x="356.92" y="244.16" width="62.01" height="3.76" rx="1.88" ry="1.88"/><rect class="cls-4" x="252.8" y="239.62" width="12.83" height="12.83" rx="4.47" ry="4.47"/></g></svg>